<svg width="28" height="28" fill="none" xmlns="http://www.w3.org/2000/svg"><path d="M13.987 5.225c-6.618 0-11.983 3.568-11.983 7.968 0 2.518 1.761 4.76 4.503 6.22-.39 1.295-1.169 2.727-2.674 3.995 0 0 3.514-.233 5.996-2.75.142.035.29.061.435.092a3.936 3.936 0 0 1-.216-1.262c0-2.969 3.304-5.294 7.525-5.294 3.03 0 5.58 1.204 6.78 2.98 1.023-1.172 1.617-2.531 1.617-3.983 0-4.4-5.365-7.967-11.983-7.967v.001ZM24.22 19.49c0-2.442-2.975-4.422-6.65-4.422-3.67 0-6.648 1.981-6.648 4.423 0 2.44 2.977 4.42 6.65 4.42.812 0 1.586-.1 2.306-.28 1.377 1.4 3.325 1.528 3.325 1.528-.834-.704-1.265-1.5-1.482-2.217 1.52-.81 2.499-2.055 2.499-3.452Z" fill="#fff"/></svg>