<svg xmlns="http://www.w3.org/2000/svg" width="15" height="15" fill="none"><g clip-path="url(#a)"><path fill="#8A92A6" fill-rule="evenodd" d="M7.5.625a6.875 6.875 0 1 0 0 13.75 6.875 6.875 0 0 0 0-13.75ZM7.187 3.75a.625.625 0 0 0 0 1.25H7.5a.625.625 0 0 0 0-1.25h-.313Zm-.937 2.5a.625.625 0 0 0 0 1.25h.625v1.875H6.25a.625.625 0 0 0 0 1.25h2.5a.625.625 0 1 0 0-1.25h-.625v-2.5A.625.625 0 0 0 7.5 6.25H6.25Z" clip-rule="evenodd"/></g><defs><clipPath id="a"><path fill="#fff" d="M0 0h15v15H0z"/></clipPath></defs></svg>