<svg width="28" height="28" fill="none" xmlns="http://www.w3.org/2000/svg"><path d="M24.5 7.583a4.088 4.088 0 0 1-4.083 4.083 4.088 4.088 0 0 1-4.084-4.083A4.088 4.088 0 0 1 20.417 3.5 4.088 4.088 0 0 1 24.5 7.583Zm-2.333 6.172a6.96 6.96 0 0 1-1.75.245A6.428 6.428 0 0 1 14 7.583c0-1.715.677-3.267 1.75-4.422A2.252 2.252 0 0 0 14 2.333a2.34 2.34 0 0 0-2.333 2.333v.339a8.155 8.155 0 0 0-5.834 7.828v7L3.5 22.166v1.167h21v-1.167l-2.333-2.333v-6.078ZM14 26.833a2.325 2.325 0 0 0 2.333-2.333h-4.666A2.333 2.333 0 0 0 14 26.833Z" fill="#fff"/></svg>