<svg width="28" height="28" viewBox="0 0 28 28" fill="none" xmlns="http://www.w3.org/2000/svg">
<path d="M13.9868 5.22538C7.36922 5.22538 2.00372 8.79276 2.00372 13.1931C2.00372 15.7105 3.7651 17.9531 6.50735 19.4126C6.1171 20.7076 5.33835 22.14 3.83335 23.4079C3.83335 23.4079 7.34735 23.1751 9.82885 20.6578C9.97147 20.6928 10.1193 20.719 10.2637 20.7505C10.1232 20.3443 10.0502 19.9177 10.0476 19.4879C10.0476 16.519 13.3516 14.1941 17.5726 14.1941C20.6027 14.1941 23.1533 15.3981 24.3538 17.1744C25.3758 16.0019 25.97 14.643 25.97 13.1905C25.97 8.79101 20.6045 5.22363 13.9868 5.22363V5.22538ZM24.22 19.4896C24.22 17.0484 21.245 15.0683 17.57 15.0683C13.8993 15.0683 10.9217 17.0493 10.9217 19.4905C10.9217 21.9318 13.8993 23.9119 17.5717 23.9119C18.3837 23.9119 19.1581 23.8104 19.8782 23.6319C21.2546 25.0301 23.2032 25.1588 23.2032 25.1588C22.3693 24.4553 21.938 23.6599 21.721 22.9415C23.2417 22.1321 24.22 20.887 24.22 19.4896Z" fill="white"/>
</svg>
