<svg width="28" height="28" viewBox="0 0 28 28" fill="none" xmlns="http://www.w3.org/2000/svg">
<path d="M24.5 7.58301C24.5 9.83468 22.6683 11.6663 20.4167 11.6663C18.165 11.6663 16.3333 9.83468 16.3333 7.58301C16.3333 5.33135 18.165 3.49968 20.4167 3.49968C22.6683 3.49968 24.5 5.33135 24.5 7.58301ZM22.1667 13.7547C21.5833 13.9063 21 13.9997 20.4167 13.9997C18.7158 13.9966 17.0855 13.3196 15.8828 12.1169C14.6801 10.9142 14.0031 9.28387 14 7.58301C14 5.86801 14.6767 4.31635 15.75 3.16135C15.5383 2.90181 15.2713 2.69278 14.9686 2.54948C14.6658 2.40618 14.3349 2.33223 14 2.33301C12.7167 2.33301 11.6667 3.38301 11.6667 4.66635V5.00468C8.20167 6.03135 5.83333 9.21635 5.83333 12.833V19.833L3.5 22.1663V23.333H24.5V22.1663L22.1667 19.833V13.7547ZM14 26.833C15.295 26.833 16.3333 25.7947 16.3333 24.4997H11.6667C11.6667 25.1185 11.9125 25.712 12.3501 26.1496C12.7877 26.5872 13.3812 26.833 14 26.833Z" fill="white"/>
</svg>
