<svg width="10" height="10" viewBox="0 0 10 10" fill="none" xmlns="http://www.w3.org/2000/svg">
<path d="M1.24997 2.08341H8.74997C8.82591 2.08365 8.90034 2.10459 8.96526 2.14399C9.03017 2.18338 9.08312 2.23973 9.11839 2.30697C9.15366 2.37422 9.16993 2.44981 9.16543 2.52561C9.16094 2.60141 9.13586 2.67455 9.09289 2.73716L5.34289 8.15383C5.18747 8.37841 4.81331 8.37841 4.65747 8.15383L0.907475 2.73716C0.864068 2.67469 0.838614 2.60151 0.833877 2.52558C0.82914 2.44965 0.845301 2.37388 0.880605 2.30649C0.91591 2.2391 0.969006 2.18268 1.03413 2.14335C1.09925 2.10402 1.1739 2.08329 1.24997 2.08341Z" fill="#999999"/>
</svg>
